<?xml version="1.0" encoding="UTF-8"?>
<svg xmlns="http://www.w3.org/2000/svg" width="125" height="60" viewBox="0 0 125 60" fill="none">
  <rect width="125" height="60.0001" rx="6" fill="#17191A"></rect>
  <path d="M26.6877 26.1425C27.9301 26.1425 29.0019 26.6346 29.9019 27.6178C30.7895 28.5885 31.2339 29.7826 31.2339 31.2008C31.2339 32.6314 30.7895 33.8318 29.9019 34.8025C29.0143 35.7737 27.9431 36.2591 26.6877 36.2591C25.4578 36.2591 24.5129 35.8693 23.8538 35.0904V35.9904H21V22.5781H23.8526V27.3112C24.5124 26.5317 25.4566 26.1425 26.6865 26.1425H26.6877ZM24.4812 32.9057C24.9119 33.3272 25.4578 33.5382 26.1169 33.5382C26.7761 33.5382 27.3151 33.3272 27.7334 32.9057C28.1647 32.4843 28.3801 31.9158 28.3801 31.2008C28.3801 30.4852 28.1647 29.9167 27.734 29.4953C27.3151 29.0738 26.7761 28.8628 26.1169 28.8628C25.4578 28.8628 24.9125 29.0738 24.4812 29.4953C24.0629 29.9167 23.8532 30.4852 23.8532 31.2008C23.8532 31.9158 24.0629 32.4849 24.4812 32.9057ZM42.1518 32.3502H35.3997C35.7171 33.244 36.4777 33.6915 37.6822 33.6915C38.4558 33.6915 39.0645 33.4482 39.5083 32.9634L41.7908 34.2854C40.8652 35.6012 39.4828 36.2591 37.6442 36.2591C36.0595 36.2591 34.7785 35.78 33.802 34.8223C32.8509 33.864 32.3754 32.6568 32.3754 31.2008C32.3754 29.7696 32.8447 28.5692 33.7833 27.5985C34.7343 26.6278 35.9512 26.1425 37.435 26.1425C38.8174 26.1425 39.9646 26.6278 40.8777 27.5985C41.8032 28.5438 42.2663 29.7447 42.2663 31.2008C42.2663 31.6092 42.2283 31.9927 42.1518 32.3502ZM35.3425 30.2041H39.4318C39.153 29.1954 38.4813 28.6909 37.4158 28.6909C36.3128 28.6909 35.6219 29.1954 35.3425 30.2041ZM49.1788 26.4106V29.1694H47.2194V32.5612C47.2194 32.9312 47.3657 33.1739 47.657 33.2893C47.9489 33.3911 48.4562 33.4233 49.1788 33.3849V35.9904C47.3781 36.1827 46.1227 36.0096 45.4125 35.4734C44.7154 34.9241 44.3668 33.9534 44.3668 32.5612V29.1694H42.845V26.4106H44.3668V24.5902L47.2194 23.7282V26.4106H49.1788Z" fill="#F9B035"></path>
  <path d="M60.5248 31.547L61.8947 26.4123H64.9378L61.8941 35.9927H59.2314L57.7101 30.8766L56.1883 35.9921H53.5256L50.4819 26.4123H53.5256L54.8949 31.547L56.3788 26.4123H59.0415L60.5248 31.547ZM71.6434 26.1442C72.6704 26.1442 73.5138 26.4949 74.1729 27.198C74.8576 27.913 75.2 28.8838 75.2 30.1101V35.9921H72.3468V30.5316C72.3468 29.9829 72.1949 29.5546 71.8905 29.2475C71.5861 28.9415 71.1866 28.7882 70.6923 28.7882C70.134 28.7882 69.6965 28.9607 69.3797 29.3052C69.0753 29.6378 68.9234 30.1232 68.9234 30.7618V35.9927H66.0702V22.5804H68.9234V27.3129C69.4936 26.5334 70.4004 26.1442 71.6434 26.1442ZM84.0633 27.3129V26.4117H86.9165V35.9921H84.0633V35.0915C83.4042 35.8705 82.4593 36.2602 81.2294 36.2602C79.974 36.2602 78.9028 35.7749 78.0152 34.8036C77.1276 33.8329 76.6838 32.6325 76.6838 31.2019C76.6838 29.7837 77.1276 28.5896 78.0152 27.6189C78.9152 26.6352 79.987 26.1436 81.2294 26.1436C82.4593 26.1436 83.4042 26.5339 84.0633 27.3129ZM79.537 31.2025C79.537 31.9175 79.7461 32.4866 80.1644 32.9074C80.5827 33.3289 81.128 33.5399 81.8002 33.5399C82.4724 33.5399 83.0176 33.3289 83.4359 32.9074C83.8542 32.486 84.0633 31.9175 84.0633 31.2025C84.0633 30.4869 83.8542 29.9184 83.4359 29.4969C83.0176 29.0755 82.4724 28.8645 81.8002 28.8645C81.128 28.8645 80.5827 29.0755 80.1644 29.4969C79.7461 29.9184 79.537 30.4869 79.537 31.2025ZM91.8628 35.9921H89.0097V22.0056H91.8628V35.9921ZM103.252 32.3519H96.4991C96.8165 33.2457 97.5772 33.6932 98.7816 33.6932C99.5552 33.6932 100.164 33.4499 100.608 32.9651L102.89 34.2871C101.965 35.6029 100.582 36.2608 98.7436 36.2608C97.1589 36.2608 95.8779 35.7817 94.9019 34.824C93.9509 33.8657 93.4753 32.6585 93.4753 31.2025C93.4753 29.7713 93.9441 28.5709 94.8827 27.6002C95.8337 26.6295 97.0512 26.1442 98.5345 26.1442C99.9168 26.1442 101.065 26.6295 101.977 27.6002C102.903 28.5455 103.366 29.7464 103.366 31.2025C103.366 31.6109 103.328 31.9944 103.252 32.3519ZM96.4425 30.2057H100.532C100.253 29.1971 99.5807 28.6926 98.5158 28.6926C97.4122 28.6926 96.7213 29.1971 96.4425 30.2057ZM92.993 16.402C92.9998 14.5087 94.5358 12.9932 96.4442 13C98.3593 13.0068 99.8749 14.5189 99.8749 16.4218C99.8759 16.8719 99.7879 17.3177 99.6159 17.7338C99.444 18.1499 99.1915 18.528 98.8729 18.8466C98.5544 19.1651 98.1759 19.4178 97.7594 19.5901C97.3428 19.7625 96.8962 19.8511 96.4453 19.851C95.9908 19.8541 95.5403 19.7669 95.1199 19.5946C94.6995 19.4224 94.3176 19.1684 93.9964 18.8474C93.6753 18.5265 93.4213 18.145 93.2492 17.7252C93.0772 17.3054 92.9905 16.8556 92.9941 16.402H92.993ZM82.4004 45.2166C81.099 45.2223 80.0692 44.2159 80.059 42.9313C80.0488 41.6195 81.0752 40.5871 82.389 40.5905C83.6756 40.5933 84.7168 41.6229 84.7214 42.8979C84.7259 44.1696 83.6836 45.2115 82.4004 45.2166ZM95.2755 47.9641C95.2766 46.8441 96.1908 45.9401 97.3034 45.956C97.833 45.9609 98.3391 46.1749 98.7111 46.5512C99.083 46.9275 99.2906 47.4355 99.2883 47.9641C99.2904 48.2294 99.2392 48.4925 99.1377 48.7377C99.0362 48.9829 98.8866 49.2053 98.6975 49.3918C98.5085 49.5784 98.2839 49.7252 98.0371 49.8236C97.7902 49.922 97.5261 49.9701 97.2603 49.965C96.9981 49.9645 96.7386 49.9123 96.4967 49.8114C96.2548 49.7104 96.0352 49.5627 95.8508 49.3767C95.6663 49.1908 95.5205 48.9702 95.4217 48.7278C95.323 48.4854 95.2733 48.2258 95.2755 47.9641ZM108.361 26.0293C108.577 26.028 108.792 26.0697 108.992 26.152C109.192 26.2344 109.374 26.3558 109.527 26.509C109.679 26.6623 109.8 26.8444 109.881 27.0447C109.962 27.245 110.003 27.4594 110 27.6755C110.002 27.8916 109.96 28.106 109.879 28.3062C109.797 28.5064 109.676 28.6885 109.524 28.8419C109.371 28.9953 109.19 29.1171 108.99 29.2002C108.79 29.2833 108.575 29.3261 108.359 29.3261C107.434 29.3318 106.674 28.5721 106.688 27.6528C106.695 27.2168 106.875 26.8013 107.188 26.4973C107.502 26.1933 107.923 26.0255 108.36 26.0305L108.361 26.0293ZM83.6802 20.2424C82.9507 20.2469 82.3505 19.6643 82.3414 18.9419C82.3324 18.2303 82.9292 17.616 83.6484 17.599C84.3796 17.582 85.0104 18.1992 85.0082 18.9306C85.0059 19.6547 84.4147 20.2373 83.6802 20.2424Z" fill="white"></path>
</svg>
